<?xml version="1.0" encoding="UTF-8" standalone="no"?>
<!DOCTYPE svg PUBLIC "-//W3C//DTD SVG 1.1//EN"
 "http://www.w3.org/Graphics/SVG/1.1/DTD/svg11.dtd">
<!-- Generated by graphviz version 2.40.1 (20161225.0304)
 -->
<!-- Title: G Pages: 1 -->
<svg width="760pt" height="627pt"
 viewBox="0.00 0.00 760.29 626.77" xmlns="http://www.w3.org/2000/svg" xmlns:xlink="http://www.w3.org/1999/xlink">
<g id="graph0" class="graph" transform="scale(1 1) rotate(0) translate(4 622.7666)">
<title>G</title>
<polygon fill="#ffffff" stroke="transparent" points="-4,4 -4,-622.7666 756.2912,-622.7666 756.2912,4 -4,4"/>
<text text-anchor="middle" x="376.1456" y="-7.8" font-family="Times,serif" font-size="14.00" fill="#000000">delivery.dot</text>
<g id="clust1" class="cluster">
<title>cluster_1</title>
<polygon fill="none" stroke="#000000" points="17.3467,-31 17.3467,-610.7666 737.3467,-610.7666 737.3467,-31 17.3467,-31"/>
<text text-anchor="middle" x="377.3467" y="-595.5666" font-family="Times,serif" font-size="14.00" fill="#000000">Loop#1</text>
</g>
<g id="clust2" class="cluster">
<title>cluster_2</title>
<polygon fill="none" stroke="#000000" points="117.3467,-39 117.3467,-385.86 677.3467,-385.86 677.3467,-39 117.3467,-39"/>
<text text-anchor="middle" x="397.3467" y="-370.66" font-family="Times,serif" font-size="14.00" fill="#000000">IfBranch#2</text>
</g>
<g id="clust3" class="cluster">
<title>cluster_3</title>
<polygon fill="none" stroke="#000000" points="335.3467,-47 335.3467,-271.9066 495.3467,-271.9066 495.3467,-47 335.3467,-47"/>
<text text-anchor="middle" x="415.3467" y="-256.7066" font-family="Times,serif" font-size="14.00" fill="#000000">Loop#3</text>
</g>
<!-- 22 -->
<g id="node1" class="node">
<title>22</title>
<ellipse fill="none" stroke="#ff0000" cx="597.3467" cy="-542.2899" rx="110.1176" ry="37.4533"/>
<text text-anchor="middle" x="597.3467" y="-553.5899" font-family="Times,serif" font-size="14.00" fill="#000000">Get DIST_DELI_INDEX</text>
<text text-anchor="middle" x="597.3467" y="-538.5899" font-family="Times,serif" font-size="14.00" fill="#000000">staticKey: false</text>
<text text-anchor="middle" x="597.3467" y="-523.5899" font-family="Times,serif" font-size="14.00" fill="#000000">localTable: true</text>
</g>
<!-- 23 -->
<g id="node2" class="node">
<title>23</title>
<ellipse fill="none" stroke="#ff0000" cx="151.3467" cy="-431.3366" rx="72.25" ry="37.4533"/>
<text text-anchor="middle" x="151.3467" y="-442.6366" font-family="Times,serif" font-size="14.00" fill="#000000">Get NORD</text>
<text text-anchor="middle" x="151.3467" y="-427.6366" font-family="Times,serif" font-size="14.00" fill="#000000">staticKey: false</text>
<text text-anchor="middle" x="151.3467" y="-412.6366" font-family="Times,serif" font-size="14.00" fill="#000000">localTable: true</text>
</g>
<!-- 22&#45;&gt;23 -->
<g id="edge1" class="edge">
<title>22&#45;&gt;23</title>
<path fill="none" stroke="#000000" d="M504.7029,-521.9466C441.791,-507.8218 356.8134,-488.1374 282.3467,-468.8133 263.3359,-463.88 242.877,-458.2046 223.9089,-452.7874"/>
<polygon fill="#000000" stroke="#000000" points="224.7189,-449.3786 214.1413,-449.9834 222.7874,-456.1069 224.7189,-449.3786"/>
</g>
<!-- 24 -->
<g id="node3" class="node">
<title>24</title>
<ellipse fill="none" stroke="#ff0000" cx="397.3467" cy="-317.3833" rx="109.7032" ry="37.4533"/>
<text text-anchor="middle" x="397.3467" y="-328.6833" font-family="Times,serif" font-size="14.00" fill="#000000">Put DIST_DELI_INDEX</text>
<text text-anchor="middle" x="397.3467" y="-313.6833" font-family="Times,serif" font-size="14.00" fill="#000000">staticKey: false</text>
<text text-anchor="middle" x="397.3467" y="-298.6833" font-family="Times,serif" font-size="14.00" fill="#000000">localTable: true</text>
</g>
<!-- 22&#45;&gt;24 -->
<g id="edge3" class="edge">
<title>22&#45;&gt;24</title>
<path fill="none" stroke="#000000" stroke-dasharray="5,2" d="M565.2132,-506.1548C530.0779,-466.644 473.7787,-403.3336 436.1917,-361.0657"/>
<polygon fill="#000000" stroke="#000000" points="438.6611,-358.5757 429.4004,-353.4288 433.4302,-363.2273 438.6611,-358.5757"/>
</g>
<!-- 25 -->
<g id="node4" class="node">
<title>25</title>
<ellipse fill="none" stroke="#ff0000" cx="197.3467" cy="-317.3833" rx="72.25" ry="37.4533"/>
<text text-anchor="middle" x="197.3467" y="-328.6833" font-family="Times,serif" font-size="14.00" fill="#000000">Put NORD</text>
<text text-anchor="middle" x="197.3467" y="-313.6833" font-family="Times,serif" font-size="14.00" fill="#000000">staticKey: false</text>
<text text-anchor="middle" x="197.3467" y="-298.6833" font-family="Times,serif" font-size="14.00" fill="#000000">localTable: true</text>
</g>
<!-- 22&#45;&gt;25 -->
<g id="edge4" class="edge">
<title>22&#45;&gt;25</title>
<path fill="none" stroke="#000000" d="M526.2198,-513.4275C459.7316,-485.0749 358.8947,-438.5019 278.3467,-385.86 265.3228,-377.3482 252.0725,-366.9958 240.1639,-356.9449"/>
<polygon fill="#000000" stroke="#000000" points="242.4151,-354.2646 232.5479,-350.4059 237.8551,-359.5757 242.4151,-354.2646"/>
</g>
<!-- 26 -->
<g id="node5" class="node">
<title>26</title>
<ellipse fill="none" stroke="#ff0000" cx="597.3467" cy="-317.3833" rx="72.25" ry="37.4533"/>
<text text-anchor="middle" x="597.3467" y="-328.6833" font-family="Times,serif" font-size="14.00" fill="#000000">Get ORDR</text>
<text text-anchor="middle" x="597.3467" y="-313.6833" font-family="Times,serif" font-size="14.00" fill="#000000">staticKey: false</text>
<text text-anchor="middle" x="597.3467" y="-298.6833" font-family="Times,serif" font-size="14.00" fill="#000000">localTable: true</text>
</g>
<!-- 22&#45;&gt;26 -->
<g id="edge7" class="edge">
<title>22&#45;&gt;26</title>
<path fill="none" stroke="#000000" d="M597.3467,-504.6456C597.3467,-466.3726 597.3467,-406.941 597.3467,-365.3236"/>
<polygon fill="#000000" stroke="#000000" points="600.8468,-365.1504 597.3467,-355.1504 593.8468,-365.1505 600.8468,-365.1504"/>
</g>
<!-- 27 -->
<g id="node6" class="node">
<title>27</title>
<ellipse fill="none" stroke="#ff0000" cx="597.3467" cy="-203.43" rx="72.25" ry="37.4533"/>
<text text-anchor="middle" x="597.3467" y="-214.73" font-family="Times,serif" font-size="14.00" fill="#000000">Put ORDR</text>
<text text-anchor="middle" x="597.3467" y="-199.73" font-family="Times,serif" font-size="14.00" fill="#000000">staticKey: false</text>
<text text-anchor="middle" x="597.3467" y="-184.73" font-family="Times,serif" font-size="14.00" fill="#000000">localTable: true</text>
</g>
<!-- 22&#45;&gt;27 -->
<g id="edge9" class="edge">
<title>22&#45;&gt;27</title>
<path fill="none" stroke="#000000" d="M656.296,-510.4745C671.1098,-499.3878 685.1212,-485.4672 693.3467,-468.8133 711.9367,-431.1746 716.8815,-314.6683 693.3467,-279.9066 687.9795,-271.979 681.4735,-276.9672 673.3467,-271.9066 660.7298,-264.0502 648.2401,-254.0125 637.1427,-244.0592"/>
<polygon fill="#000000" stroke="#000000" points="639.4269,-241.4048 629.6979,-237.2099 634.6874,-246.5563 639.4269,-241.4048"/>
</g>
<!-- 28 -->
<g id="node9" class="node">
<title>28</title>
<ellipse fill="none" stroke="#ff0000" cx="415.3467" cy="-203.43" rx="72.25" ry="37.4533"/>
<text text-anchor="middle" x="415.3467" y="-214.73" font-family="Times,serif" font-size="14.00" fill="#000000">Get ORLI</text>
<text text-anchor="middle" x="415.3467" y="-199.73" font-family="Times,serif" font-size="14.00" fill="#000000">staticKey: false</text>
<text text-anchor="middle" x="415.3467" y="-184.73" font-family="Times,serif" font-size="14.00" fill="#000000">localTable: true</text>
</g>
<!-- 22&#45;&gt;28 -->
<g id="edge12" class="edge">
<title>22&#45;&gt;28</title>
<path fill="none" stroke="#000000" d="M623.6416,-505.881C643.8825,-475.4744 670.219,-430.1042 681.3467,-385.86 687.0896,-363.0259 697.6417,-296.9022 681.3467,-279.9066 666.7233,-264.6546 510.9081,-279.8955 491.3467,-271.9066 476.6453,-265.9026 462.9422,-255.7391 451.3334,-245.0541"/>
<polygon fill="#000000" stroke="#000000" points="453.6444,-242.4203 444.0177,-237.9957 448.784,-247.4579 453.6444,-242.4203"/>
</g>
<!-- 29 -->
<g id="node10" class="node">
<title>29</title>
<ellipse fill="none" stroke="#ff0000" cx="415.3467" cy="-92.4767" rx="72.25" ry="37.4533"/>
<text text-anchor="middle" x="415.3467" y="-103.7767" font-family="Times,serif" font-size="14.00" fill="#000000">Put ORLI</text>
<text text-anchor="middle" x="415.3467" y="-88.7767" font-family="Times,serif" font-size="14.00" fill="#000000">staticKey: false</text>
<text text-anchor="middle" x="415.3467" y="-73.7767" font-family="Times,serif" font-size="14.00" fill="#000000">localTable: true</text>
</g>
<!-- 22&#45;&gt;29 -->
<g id="edge16" class="edge">
<title>22&#45;&gt;29</title>
<path fill="none" stroke="#000000" d="M663.2112,-512.0558C679.9772,-500.9693 695.9068,-486.653 705.3467,-468.8133 768.4994,-349.4656 773.8231,-264.3416 681.3467,-165.9533 655.8581,-138.8353 563.3399,-117.5706 494.5362,-105.0422"/>
<polygon fill="#000000" stroke="#000000" points="495.0281,-101.5747 484.5677,-103.2575 493.7944,-108.4651 495.0281,-101.5747"/>
</g>
<!-- 23&#45;&gt;24 -->
<g id="edge2" class="edge">
<title>23&#45;&gt;24</title>
<path fill="none" stroke="#000000" stroke-dasharray="1,5" d="M212.9551,-411.756C234.0198,-404.4119 257.5138,-395.4904 278.3467,-385.86 297.591,-376.9639 317.828,-365.9833 336.0447,-355.4407"/>
<polygon fill="#000000" stroke="#000000" points="337.9481,-358.3822 344.812,-350.3114 334.4132,-352.3402 337.9481,-358.3822"/>
</g>
<!-- 23&#45;&gt;25 -->
<g id="edge5" class="edge">
<title>23&#45;&gt;25</title>
<path fill="none" stroke="#000000" stroke-dasharray="1,5" d="M160.0296,-394.024C163.6525,-384.0848 167.9493,-373.2356 172.3415,-362.9097"/>
<polygon fill="#000000" stroke="#000000" points="175.6052,-364.1811 176.3854,-353.615 169.1864,-361.3884 175.6052,-364.1811"/>
</g>
<!-- 23&#45;&gt;25 -->
<g id="edge6" class="edge">
<title>23&#45;&gt;25</title>
<path fill="none" stroke="#000000" stroke-dasharray="5,2" d="M172.2295,-395.2811C176.636,-385.3965 181.1282,-374.5363 185.1229,-364.1448"/>
<polygon fill="#000000" stroke="#000000" points="188.4025,-365.3671 188.635,-354.7748 181.8478,-362.9102 188.4025,-365.3671"/>
</g>
<!-- 23&#45;&gt;26 -->
<g id="edge8" class="edge">
<title>23&#45;&gt;26</title>
<path fill="none" stroke="#000000" stroke-dasharray="1,5" d="M223.256,-427.2414C314.2609,-421.2246 465.3125,-408.2162 516.3467,-385.86 531.5717,-379.1904 546.1305,-368.7108 558.6,-357.9371"/>
<polygon fill="#000000" stroke="#000000" points="560.9771,-360.5066 566.0814,-351.2224 556.3014,-355.2972 560.9771,-360.5066"/>
</g>
<!-- 23&#45;&gt;27 -->
<g id="edge10" class="edge">
<title>23&#45;&gt;27</title>
<path fill="none" stroke="#000000" stroke-dasharray="1,5" d="M121.5366,-397.1684C119.4546,-393.5218 117.6625,-389.727 116.3467,-385.86 101.1778,-341.2796 83.3983,-313.5504 116.3467,-279.9066 131.2377,-264.7014 479.114,-278.508 499.3467,-271.9066 518.6703,-265.6019 537.5507,-254.1002 553.4993,-242.3002"/>
<polygon fill="#000000" stroke="#000000" points="555.7474,-244.9871 561.559,-236.1284 551.4915,-239.4294 555.7474,-244.9871"/>
</g>
<!-- 30 -->
<g id="node7" class="node">
<title>30</title>
<ellipse fill="none" stroke="#ff0000" cx="229.3467" cy="-203.43" rx="75.8212" ry="37.4533"/>
<text text-anchor="middle" x="229.3467" y="-214.73" font-family="Times,serif" font-size="14.00" fill="#000000">Get CUST</text>
<text text-anchor="middle" x="229.3467" y="-199.73" font-family="Times,serif" font-size="14.00" fill="#000000">staticKey: false</text>
<text text-anchor="middle" x="229.3467" y="-184.73" font-family="Times,serif" font-size="14.00" fill="#000000">localTable: false</text>
</g>
<!-- 23&#45;&gt;30 -->
<g id="edge22" class="edge">
<title>23&#45;&gt;30</title>
<path fill="none" stroke="#000000" stroke-dasharray="1,5" d="M98.375,-405.6221C91.5441,-400.0599 85.4951,-393.502 81.3467,-385.86 58.8809,-344.4741 50.0545,-315.0961 81.3467,-279.9066 91.4575,-268.5366 135.4078,-278.0068 149.3467,-271.9066 164.1847,-265.413 178.3339,-255.2128 190.4939,-244.6492"/>
<polygon fill="#000000" stroke="#000000" points="193.118,-246.995 198.1848,-237.6903 188.4214,-241.8044 193.118,-246.995"/>
</g>
<!-- 31 -->
<g id="node8" class="node">
<title>31</title>
<ellipse fill="none" stroke="#ff0000" cx="239.3467" cy="-92.4767" rx="75.8212" ry="37.4533"/>
<text text-anchor="middle" x="239.3467" y="-103.7767" font-family="Times,serif" font-size="14.00" fill="#000000">Put CUST</text>
<text text-anchor="middle" x="239.3467" y="-88.7767" font-family="Times,serif" font-size="14.00" fill="#000000">staticKey: false</text>
<text text-anchor="middle" x="239.3467" y="-73.7767" font-family="Times,serif" font-size="14.00" fill="#000000">localTable: false</text>
</g>
<!-- 23&#45;&gt;31 -->
<g id="edge24" class="edge">
<title>23&#45;&gt;31</title>
<path fill="none" stroke="#000000" stroke-dasharray="1,5" d="M83.8902,-417.5865C67.2454,-410.8446 51.3401,-400.8051 41.3467,-385.86 -12.98,-304.6135 -14.461,-246.1897 41.3467,-165.9533 55.8221,-145.1416 112.4307,-125.3747 161.4315,-111.5961"/>
<polygon fill="#000000" stroke="#000000" points="162.408,-114.9575 171.1154,-108.9217 160.5445,-108.2101 162.408,-114.9575"/>
</g>
<!-- 23&#45;&gt;28 -->
<g id="edge14" class="edge">
<title>23&#45;&gt;28</title>
<path fill="none" stroke="#000000" stroke-dasharray="1,5" d="M110.4724,-400.2584C106.8062,-395.8293 103.6247,-391.0111 101.3467,-385.86 82.3013,-342.7928 68.6129,-313.7592 101.3467,-279.9066 110.543,-270.396 327.0779,-276.8566 339.3467,-271.9066 354.0734,-265.965 367.7842,-255.8203 379.3922,-245.1333"/>
<polygon fill="#000000" stroke="#000000" points="381.9437,-247.535 386.7062,-238.0709 377.0813,-242.4994 381.9437,-247.535"/>
</g>
<!-- 23&#45;&gt;29 -->
<g id="edge18" class="edge">
<title>23&#45;&gt;29</title>
<path fill="none" stroke="#000000" stroke-dasharray="1,5" d="M88.1381,-412.8169C75.9249,-406.2829 64.6665,-397.5327 57.3467,-385.86 3.7652,-300.4149 32.2104,-225.8595 113.3467,-165.9533 195.171,-105.5392 242.4236,-160.7916 339.3467,-129.9533 344.9149,-128.1817 350.5847,-126.0577 356.1905,-123.7332"/>
<polygon fill="#000000" stroke="#000000" points="357.7674,-126.864 365.5352,-119.659 354.9698,-120.4473 357.7674,-126.864"/>
</g>
<!-- 26&#45;&gt;27 -->
<g id="edge11" class="edge">
<title>26&#45;&gt;27</title>
<path fill="none" stroke="#000000" stroke-dasharray="5,2" d="M597.3467,-279.7549C597.3467,-270.6141 597.3467,-260.7194 597.3467,-251.1793"/>
<polygon fill="#000000" stroke="#000000" points="600.8468,-251.0188 597.3467,-241.0189 593.8468,-251.0189 600.8468,-251.0188"/>
</g>
<!-- 26&#45;&gt;30 -->
<g id="edge21" class="edge">
<title>26&#45;&gt;30</title>
<path fill="none" stroke="#000000" d="M547.0265,-290.4364C537.1047,-286.1838 526.5887,-282.3801 516.3467,-279.9066 473.7572,-269.6212 360.5715,-286.7449 319.3467,-271.9066 302.0511,-265.6813 285.3685,-254.8505 271.1639,-243.6156"/>
<polygon fill="#000000" stroke="#000000" points="273.048,-240.6335 263.1009,-236.9857 268.6021,-246.0404 273.048,-240.6335"/>
</g>
<!-- 26&#45;&gt;31 -->
<g id="edge23" class="edge">
<title>26&#45;&gt;31</title>
<path fill="none" stroke="#000000" d="M547.0212,-290.4582C537.0999,-286.2035 526.5854,-282.3936 516.3467,-279.9066 496.3533,-275.0503 346.7133,-285.5883 331.3467,-271.9066 295.7267,-240.1922 336.259,-208.3141 314.3467,-165.9533 307.8097,-153.316 298.2866,-141.5542 288.2061,-131.3089"/>
<polygon fill="#000000" stroke="#000000" points="290.4166,-128.5769 280.8021,-124.1258 285.5424,-133.6011 290.4166,-128.5769"/>
</g>
<!-- 26&#45;&gt;28 -->
<g id="edge13" class="edge">
<title>26&#45;&gt;28</title>
<path fill="none" stroke="#000000" d="M540.5951,-293.9988C529.6108,-289.089 518.1749,-284.1255 507.3467,-279.9066 496.4765,-275.6714 492.4619,-277.7189 482.3467,-271.9066 469.9553,-264.7865 457.8448,-255.3767 447.3424,-245.8202"/>
<polygon fill="#000000" stroke="#000000" points="449.6661,-243.2004 439.9982,-238.8663 444.8532,-248.2834 449.6661,-243.2004"/>
</g>
<!-- 26&#45;&gt;28 -->
<g id="edge15" class="edge">
<title>26&#45;&gt;28</title>
<path fill="none" stroke="#000000" stroke-dasharray="1,5" d="M548.6793,-289.6844C540.954,-286.2412 532.9986,-282.888 525.3467,-279.9066 514.4765,-275.6714 510.4619,-277.7189 500.3467,-271.9066 486.5778,-263.9949 473.1557,-253.2563 461.1344,-242.6307"/>
<polygon fill="#000000" stroke="#000000" points="463.2167,-239.7954 453.4474,-235.6953 458.5276,-244.9928 463.2167,-239.7954"/>
</g>
<!-- 26&#45;&gt;29 -->
<g id="edge17" class="edge">
<title>26&#45;&gt;29</title>
<path fill="none" stroke="#000000" d="M536.6507,-297.0661C525.3383,-290.5465 514.7793,-282.2545 507.3467,-271.9066 479.3898,-232.9846 510.7543,-207.7696 487.3467,-165.9533 480.3319,-153.4217 470.3909,-141.8809 460.0974,-131.8393"/>
<polygon fill="#000000" stroke="#000000" points="462.2693,-129.0781 452.5767,-124.7997 457.4857,-134.1887 462.2693,-129.0781"/>
</g>
<!-- 26&#45;&gt;29 -->
<g id="edge19" class="edge">
<title>26&#45;&gt;29</title>
<path fill="none" stroke="#000000" stroke-dasharray="1,5" d="M545.2277,-291.2008C537.6998,-285.7687 530.7095,-279.3728 525.3467,-271.9066 497.3898,-232.9846 528.7543,-207.7696 505.3467,-165.9533 497.1292,-151.2732 484.896,-137.9526 472.0384,-126.8091"/>
<polygon fill="#000000" stroke="#000000" points="473.9225,-123.826 463.9823,-120.1594 469.4664,-129.2244 473.9225,-123.826"/>
</g>
<!-- 30&#45;&gt;31 -->
<g id="edge25" class="edge">
<title>30&#45;&gt;31</title>
<path fill="none" stroke="#000000" stroke-dasharray="5,2" d="M232.7322,-165.8662C233.4816,-157.552 234.2851,-148.6363 235.0649,-139.9848"/>
<polygon fill="#000000" stroke="#000000" points="238.5528,-140.2755 235.9646,-130.0017 231.581,-139.6471 238.5528,-140.2755"/>
</g>
<!-- 28&#45;&gt;31 -->
<g id="edge26" class="edge">
<title>28&#45;&gt;31</title>
<path fill="none" stroke="#000000" stroke-dasharray="5,2" d="M369.1048,-174.2783C346.3372,-159.9252 318.7148,-142.5116 294.8172,-127.4462"/>
<polygon fill="#000000" stroke="#000000" points="296.5231,-124.3842 286.1973,-122.012 292.7901,-130.3057 296.5231,-124.3842"/>
</g>
<!-- 28&#45;&gt;29 -->
<g id="edge20" class="edge">
<title>28&#45;&gt;29</title>
<path fill="none" stroke="#000000" stroke-dasharray="5,2" d="M415.3467,-165.8662C415.3467,-157.6423 415.3467,-148.8301 415.3467,-140.267"/>
<polygon fill="#000000" stroke="#000000" points="418.8468,-140.0017 415.3467,-130.0017 411.8468,-140.0017 418.8468,-140.0017"/>
</g>
</g>
</svg>
