<?xml version="1.0" encoding="UTF-8" standalone="no"?>
<!DOCTYPE svg PUBLIC "-//W3C//DTD SVG 1.1//EN"
 "http://www.w3.org/Graphics/SVG/1.1/DTD/svg11.dtd">
<!-- Generated by graphviz version 2.40.1 (20161225.0304)
 -->
<!-- Title: G Pages: 1 -->
<svg width="1167pt" height="272pt"
 viewBox="0.00 0.00 1166.79 271.91" xmlns="http://www.w3.org/2000/svg" xmlns:xlink="http://www.w3.org/1999/xlink">
<g id="graph0" class="graph" transform="scale(1 1) rotate(0) translate(4 267.9066)">
<title>G</title>
<polygon fill="#ffffff" stroke="transparent" points="-4,4 -4,-267.9066 1162.7853,-267.9066 1162.7853,4 -4,4"/>
<text text-anchor="middle" x="579.3927" y="-7.8" font-family="Times,serif" font-size="14.00" fill="#000000">new_order.dot</text>
<g id="clust1" class="cluster">
<title>cluster_1</title>
<polygon fill="none" stroke="#000000" points="668.1249,-31 668.1249,-255.9066 998.1249,-255.9066 998.1249,-31 668.1249,-31"/>
<text text-anchor="middle" x="833.1249" y="-240.7066" font-family="Times,serif" font-size="14.00" fill="#000000">Loop#1</text>
</g>
<!-- 1 -->
<g id="node1" class="node">
<title>1</title>
<ellipse fill="none" stroke="#ff0000" cx="262.1249" cy="-187.43" rx="72.25" ry="37.4533"/>
<text text-anchor="middle" x="262.1249" y="-198.73" font-family="Times,serif" font-size="14.00" fill="#000000">Get WARE</text>
<text text-anchor="middle" x="262.1249" y="-183.73" font-family="Times,serif" font-size="14.00" fill="#000000">staticKey: true</text>
<text text-anchor="middle" x="262.1249" y="-168.73" font-family="Times,serif" font-size="14.00" fill="#000000">localTable: true</text>
</g>
<!-- 2 -->
<g id="node2" class="node">
<title>2</title>
<ellipse fill="none" stroke="#ff0000" cx="424.1249" cy="-187.43" rx="72.25" ry="37.4533"/>
<text text-anchor="middle" x="424.1249" y="-198.73" font-family="Times,serif" font-size="14.00" fill="#000000">Get DIST</text>
<text text-anchor="middle" x="424.1249" y="-183.73" font-family="Times,serif" font-size="14.00" fill="#000000">staticKey: true</text>
<text text-anchor="middle" x="424.1249" y="-168.73" font-family="Times,serif" font-size="14.00" fill="#000000">localTable: true</text>
</g>
<!-- 3 -->
<g id="node3" class="node">
<title>3</title>
<ellipse fill="none" stroke="#ff0000" cx="72.1249" cy="-76.4767" rx="72.25" ry="37.4533"/>
<text text-anchor="middle" x="72.1249" y="-87.7767" font-family="Times,serif" font-size="14.00" fill="#000000">Put DIST</text>
<text text-anchor="middle" x="72.1249" y="-72.7767" font-family="Times,serif" font-size="14.00" fill="#000000">staticKey: true</text>
<text text-anchor="middle" x="72.1249" y="-57.7767" font-family="Times,serif" font-size="14.00" fill="#000000">localTable: true</text>
</g>
<!-- 2&#45;&gt;3 -->
<g id="edge1" class="edge">
<title>2&#45;&gt;3</title>
<path fill="none" stroke="#000000" stroke-dasharray="5,2" d="M372.1549,-161.1102C362.6578,-156.9583 352.7155,-153.0286 343.1249,-149.9533 261.2826,-123.71 234.9671,-140.1966 153.1249,-113.9533 146.6812,-111.8871 140.0788,-109.4352 133.5593,-106.7894"/>
<polygon fill="#000000" stroke="#000000" points="134.669,-103.4589 124.0949,-102.7964 131.948,-109.9084 134.669,-103.4589"/>
</g>
<!-- 5 -->
<g id="node5" class="node">
<title>5</title>
<ellipse fill="none" stroke="#ff0000" cx="248.1249" cy="-76.4767" rx="86.0347" ry="37.4533"/>
<text text-anchor="middle" x="248.1249" y="-87.7767" font-family="Times,serif" font-size="14.00" fill="#000000">Put CUST_INDEX</text>
<text text-anchor="middle" x="248.1249" y="-72.7767" font-family="Times,serif" font-size="14.00" fill="#000000">staticKey: true</text>
<text text-anchor="middle" x="248.1249" y="-57.7767" font-family="Times,serif" font-size="14.00" fill="#000000">localTable: true</text>
</g>
<!-- 2&#45;&gt;5 -->
<g id="edge2" class="edge">
<title>2&#45;&gt;5</title>
<path fill="none" stroke="#000000" stroke-dasharray="5,2" d="M377.883,-158.2783C355.7503,-144.3255 329.0299,-127.4805 305.6033,-112.712"/>
<polygon fill="#000000" stroke="#000000" points="307.462,-109.7463 297.1361,-107.3741 303.7289,-115.6678 307.462,-109.7463"/>
</g>
<!-- 6 -->
<g id="node6" class="node">
<title>6</title>
<ellipse fill="none" stroke="#ff0000" cx="424.1249" cy="-76.4767" rx="72.25" ry="37.4533"/>
<text text-anchor="middle" x="424.1249" y="-87.7767" font-family="Times,serif" font-size="14.00" fill="#000000">Put ORDR</text>
<text text-anchor="middle" x="424.1249" y="-72.7767" font-family="Times,serif" font-size="14.00" fill="#000000">staticKey: false</text>
<text text-anchor="middle" x="424.1249" y="-57.7767" font-family="Times,serif" font-size="14.00" fill="#000000">localTable: true</text>
</g>
<!-- 2&#45;&gt;6 -->
<g id="edge3" class="edge">
<title>2&#45;&gt;6</title>
<path fill="none" stroke="#000000" d="M424.1249,-149.8662C424.1249,-141.6423 424.1249,-132.8301 424.1249,-124.267"/>
<polygon fill="#000000" stroke="#000000" points="427.625,-124.0017 424.1249,-114.0017 420.625,-124.0017 427.625,-124.0017"/>
</g>
<!-- 7 -->
<g id="node7" class="node">
<title>7</title>
<ellipse fill="none" stroke="#ff0000" cx="586.1249" cy="-76.4767" rx="72.25" ry="37.4533"/>
<text text-anchor="middle" x="586.1249" y="-87.7767" font-family="Times,serif" font-size="14.00" fill="#000000">Put NORD</text>
<text text-anchor="middle" x="586.1249" y="-72.7767" font-family="Times,serif" font-size="14.00" fill="#000000">staticKey: false</text>
<text text-anchor="middle" x="586.1249" y="-57.7767" font-family="Times,serif" font-size="14.00" fill="#000000">localTable: true</text>
</g>
<!-- 2&#45;&gt;7 -->
<g id="edge4" class="edge">
<title>2&#45;&gt;7</title>
<path fill="none" stroke="#000000" d="M467.9644,-157.4044C488.3973,-143.41 512.8579,-126.657 534.2095,-112.0334"/>
<polygon fill="#000000" stroke="#000000" points="536.2586,-114.8722 542.5312,-106.3338 532.303,-109.0969 536.2586,-114.8722"/>
</g>
<!-- 11 -->
<g id="node11" class="node">
<title>11</title>
<ellipse fill="none" stroke="#ff0000" cx="748.1249" cy="-76.4767" rx="72.25" ry="37.4533"/>
<text text-anchor="middle" x="748.1249" y="-87.7767" font-family="Times,serif" font-size="14.00" fill="#000000">Put ORLI</text>
<text text-anchor="middle" x="748.1249" y="-72.7767" font-family="Times,serif" font-size="14.00" fill="#000000">staticKey: false</text>
<text text-anchor="middle" x="748.1249" y="-57.7767" font-family="Times,serif" font-size="14.00" fill="#000000">localTable: true</text>
</g>
<!-- 2&#45;&gt;11 -->
<g id="edge6" class="edge">
<title>2&#45;&gt;11</title>
<path fill="none" stroke="#000000" d="M488.6425,-170.5718C538.0922,-157.0168 607.7022,-136.5571 667.1249,-113.9533 673.3523,-111.5845 679.773,-108.9541 686.1463,-106.2168"/>
<polygon fill="#000000" stroke="#000000" points="687.6704,-109.3702 695.4221,-102.1479 684.8584,-102.9599 687.6704,-109.3702"/>
</g>
<!-- 4 -->
<g id="node4" class="node">
<title>4</title>
<ellipse fill="none" stroke="#ff0000" cx="1083.1249" cy="-187.43" rx="75.8212" ry="37.4533"/>
<text text-anchor="middle" x="1083.1249" y="-198.73" font-family="Times,serif" font-size="14.00" fill="#000000">Get CUST</text>
<text text-anchor="middle" x="1083.1249" y="-183.73" font-family="Times,serif" font-size="14.00" fill="#000000">staticKey: true</text>
<text text-anchor="middle" x="1083.1249" y="-168.73" font-family="Times,serif" font-size="14.00" fill="#000000">localTable: false</text>
</g>
<!-- 8 -->
<g id="node8" class="node">
<title>8</title>
<ellipse fill="none" stroke="#ff0000" cx="748.1249" cy="-187.43" rx="72.25" ry="37.4533"/>
<text text-anchor="middle" x="748.1249" y="-198.73" font-family="Times,serif" font-size="14.00" fill="#000000">Get ITEM</text>
<text text-anchor="middle" x="748.1249" y="-183.73" font-family="Times,serif" font-size="14.00" fill="#000000">staticKey: true</text>
<text text-anchor="middle" x="748.1249" y="-168.73" font-family="Times,serif" font-size="14.00" fill="#000000">localTable: true</text>
</g>
<!-- 8&#45;&gt;11 -->
<g id="edge7" class="edge">
<title>8&#45;&gt;11</title>
<path fill="none" stroke="#000000" stroke-dasharray="5,2" d="M748.1249,-149.8662C748.1249,-141.6423 748.1249,-132.8301 748.1249,-124.267"/>
<polygon fill="#000000" stroke="#000000" points="751.625,-124.0017 748.1249,-114.0017 744.625,-124.0017 751.625,-124.0017"/>
</g>
<!-- 9 -->
<g id="node9" class="node">
<title>9</title>
<ellipse fill="none" stroke="#0000ff" cx="914.1249" cy="-187.43" rx="75.8212" ry="37.4533"/>
<text text-anchor="middle" x="914.1249" y="-198.73" font-family="Times,serif" font-size="14.00" fill="#000000">Get STOC</text>
<text text-anchor="middle" x="914.1249" y="-183.73" font-family="Times,serif" font-size="14.00" fill="#000000">staticKey: true</text>
<text text-anchor="middle" x="914.1249" y="-168.73" font-family="Times,serif" font-size="14.00" fill="#000000">localTable: false</text>
</g>
<!-- 10 -->
<g id="node10" class="node">
<title>10</title>
<ellipse fill="none" stroke="#0000ff" cx="914.1249" cy="-76.4767" rx="75.8212" ry="37.4533"/>
<text text-anchor="middle" x="914.1249" y="-87.7767" font-family="Times,serif" font-size="14.00" fill="#000000">Put STOC</text>
<text text-anchor="middle" x="914.1249" y="-72.7767" font-family="Times,serif" font-size="14.00" fill="#000000">staticKey: true</text>
<text text-anchor="middle" x="914.1249" y="-57.7767" font-family="Times,serif" font-size="14.00" fill="#000000">localTable: false</text>
</g>
<!-- 9&#45;&gt;10 -->
<g id="edge5" class="edge">
<title>9&#45;&gt;10</title>
<path fill="none" stroke="#000000" stroke-dasharray="5,2" d="M914.1249,-149.8662C914.1249,-141.6423 914.1249,-132.8301 914.1249,-124.267"/>
<polygon fill="#000000" stroke="#000000" points="917.625,-124.0017 914.1249,-114.0017 910.625,-124.0017 917.625,-124.0017"/>
</g>
</g>
</svg>
