<?xml version="1.0" encoding="UTF-8" standalone="no"?>
<!DOCTYPE svg PUBLIC "-//W3C//DTD SVG 1.1//EN"
 "http://www.w3.org/Graphics/SVG/1.1/DTD/svg11.dtd">
<!-- Generated by graphviz version 2.40.1 (20161225.0304)
 -->
<!-- Title: G Pages: 1 -->
<svg width="352pt" height="347pt"
 viewBox="0.00 0.00 351.63 346.86" xmlns="http://www.w3.org/2000/svg" xmlns:xlink="http://www.w3.org/1999/xlink">
<g id="graph0" class="graph" transform="scale(1 1) rotate(0) translate(4 342.86)">
<title>G</title>
<polygon fill="#ffffff" stroke="transparent" points="-4,4 -4,-342.86 347.6346,-342.86 347.6346,4 -4,4"/>
<text text-anchor="middle" x="171.8173" y="-7.8" font-family="Times,serif" font-size="14.00" fill="#000000">order_status.dot</text>
<g id="clust1" class="cluster">
<title>cluster_1</title>
<polygon fill="none" stroke="#000000" points="126.6604,-31 126.6604,-144.9533 286.6604,-144.9533 286.6604,-31 126.6604,-31"/>
<text text-anchor="middle" x="206.6604" y="-129.7533" font-family="Times,serif" font-size="14.00" fill="#000000">Loop#1</text>
</g>
<!-- 32 -->
<g id="node1" class="node">
<title>32</title>
<ellipse fill="none" stroke="#ff0000" cx="75.6604" cy="-301.3833" rx="75.8212" ry="37.4533"/>
<text text-anchor="middle" x="75.6604" y="-312.6833" font-family="Times,serif" font-size="14.00" fill="#000000">Get CUST</text>
<text text-anchor="middle" x="75.6604" y="-297.6833" font-family="Times,serif" font-size="14.00" fill="#000000">staticKey: true</text>
<text text-anchor="middle" x="75.6604" y="-282.6833" font-family="Times,serif" font-size="14.00" fill="#000000">localTable: false</text>
</g>
<!-- 33 -->
<g id="node2" class="node">
<title>33</title>
<ellipse fill="none" stroke="#ff0000" cx="256.6604" cy="-301.3833" rx="86.9483" ry="37.4533"/>
<text text-anchor="middle" x="256.6604" y="-312.6833" font-family="Times,serif" font-size="14.00" fill="#000000">Get CUST_INDEX</text>
<text text-anchor="middle" x="256.6604" y="-297.6833" font-family="Times,serif" font-size="14.00" fill="#000000">staticKey: true</text>
<text text-anchor="middle" x="256.6604" y="-282.6833" font-family="Times,serif" font-size="14.00" fill="#000000">localTable: true</text>
</g>
<!-- 34 -->
<g id="node3" class="node">
<title>34</title>
<ellipse fill="none" stroke="#ff0000" cx="206.6604" cy="-190.43" rx="72.25" ry="37.4533"/>
<text text-anchor="middle" x="206.6604" y="-201.73" font-family="Times,serif" font-size="14.00" fill="#000000">Get ORDR</text>
<text text-anchor="middle" x="206.6604" y="-186.73" font-family="Times,serif" font-size="14.00" fill="#000000">staticKey: false</text>
<text text-anchor="middle" x="206.6604" y="-171.73" font-family="Times,serif" font-size="14.00" fill="#000000">localTable: true</text>
</g>
<!-- 33&#45;&gt;34 -->
<g id="edge1" class="edge">
<title>33&#45;&gt;34</title>
<path fill="none" stroke="#000000" d="M240.0111,-264.4374C235.963,-255.4543 231.5848,-245.7387 227.3738,-236.3943"/>
<polygon fill="#000000" stroke="#000000" points="230.5365,-234.8935 223.237,-227.2145 224.1546,-237.7695 230.5365,-234.8935"/>
</g>
<!-- 35 -->
<g id="node4" class="node">
<title>35</title>
<ellipse fill="none" stroke="#ff0000" cx="206.6604" cy="-76.4767" rx="72.25" ry="37.4533"/>
<text text-anchor="middle" x="206.6604" y="-87.7767" font-family="Times,serif" font-size="14.00" fill="#000000">Get ORLI</text>
<text text-anchor="middle" x="206.6604" y="-72.7767" font-family="Times,serif" font-size="14.00" fill="#000000">staticKey: false</text>
<text text-anchor="middle" x="206.6604" y="-57.7767" font-family="Times,serif" font-size="14.00" fill="#000000">localTable: true</text>
</g>
<!-- 33&#45;&gt;35 -->
<g id="edge2" class="edge">
<title>33&#45;&gt;35</title>
<path fill="none" stroke="#000000" d="M276.2447,-264.7641C289.9639,-233.9415 303.2939,-189.2144 287.6604,-152.9533 281.1927,-137.9519 270.1746,-124.5239 258.3131,-113.2644"/>
<polygon fill="#000000" stroke="#000000" points="260.6231,-110.6346 250.8517,-106.5393 255.9365,-115.8342 260.6231,-110.6346"/>
</g>
<!-- 34&#45;&gt;35 -->
<g id="edge3" class="edge">
<title>34&#45;&gt;35</title>
<path fill="none" stroke="#000000" d="M200.269,-152.8016C199.9175,-143.6608 199.8244,-133.7661 199.9897,-124.226"/>
<polygon fill="#000000" stroke="#000000" points="203.4928,-124.1584 200.2705,-114.0655 196.4955,-123.965 203.4928,-124.1584"/>
</g>
<!-- 34&#45;&gt;35 -->
<g id="edge4" class="edge">
<title>34&#45;&gt;35</title>
<path fill="none" stroke="#000000" stroke-dasharray="1,5" d="M213.0519,-152.8016C213.4033,-143.6608 213.4964,-133.7661 213.3311,-124.226"/>
<polygon fill="#000000" stroke="#000000" points="216.8253,-123.965 213.0504,-114.0655 209.828,-124.1584 216.8253,-123.965"/>
</g>
</g>
</svg>
