<?xml version="1.0" encoding="UTF-8" standalone="no"?>
<!DOCTYPE svg PUBLIC "-//W3C//DTD SVG 1.1//EN"
 "http://www.w3.org/Graphics/SVG/1.1/DTD/svg11.dtd">
<!-- Generated by graphviz version 2.40.1 (20161225.0304)
 -->
<!-- Title: G Pages: 1 -->
<svg width="224pt" height="397pt"
 viewBox="0.00 0.00 224.00 396.86" xmlns="http://www.w3.org/2000/svg" xmlns:xlink="http://www.w3.org/1999/xlink">
<g id="graph0" class="graph" transform="scale(1 1) rotate(0) translate(4 392.86)">
<title>G</title>
<polygon fill="#ffffff" stroke="transparent" points="-4,4 -4,-392.86 220,-392.86 220,4 -4,4"/>
<text text-anchor="middle" x="108" y="-7.8" font-family="Times,serif" font-size="14.00" fill="#000000">stock_level.dot</text>
<g id="clust1" class="cluster">
<title>cluster_1</title>
<polygon fill="none" stroke="#000000" points="8,-31 8,-305.9066 208,-305.9066 208,-31 8,-31"/>
<text text-anchor="middle" x="108" y="-290.7066" font-family="Times,serif" font-size="14.00" fill="#000000">Loop#1</text>
</g>
<g id="clust2" class="cluster">
<title>cluster_2</title>
<polygon fill="none" stroke="#000000" points="16,-39 16,-274.9066 200,-274.9066 200,-39 16,-39"/>
<text text-anchor="middle" x="108" y="-259.7066" font-family="Times,serif" font-size="14.00" fill="#000000">Loop#2</text>
</g>
<g id="clust3" class="cluster">
<title>cluster_3</title>
<polygon fill="none" stroke="#000000" points="24,-47 24,-160.9533 192,-160.9533 192,-47 24,-47"/>
<text text-anchor="middle" x="108" y="-145.7533" font-family="Times,serif" font-size="14.00" fill="#000000">IfBranch#3</text>
</g>
<!-- 36 -->
<g id="node1" class="node">
<title>36</title>
<ellipse fill="none" stroke="#ff0000" cx="108" cy="-351.3833" rx="72.25" ry="37.4533"/>
<text text-anchor="middle" x="108" y="-362.6833" font-family="Times,serif" font-size="14.00" fill="#000000">Get DIST</text>
<text text-anchor="middle" x="108" y="-347.6833" font-family="Times,serif" font-size="14.00" fill="#000000">staticKey: true</text>
<text text-anchor="middle" x="108" y="-332.6833" font-family="Times,serif" font-size="14.00" fill="#000000">localTable: true</text>
</g>
<!-- 37 -->
<g id="node2" class="node">
<title>37</title>
<ellipse fill="none" stroke="#ff0000" cx="108" cy="-206.43" rx="72.25" ry="37.4533"/>
<text text-anchor="middle" x="108" y="-217.73" font-family="Times,serif" font-size="14.00" fill="#000000">Get ORLI</text>
<text text-anchor="middle" x="108" y="-202.73" font-family="Times,serif" font-size="14.00" fill="#000000">staticKey: false</text>
<text text-anchor="middle" x="108" y="-187.73" font-family="Times,serif" font-size="14.00" fill="#000000">localTable: true</text>
</g>
<!-- 36&#45;&gt;37 -->
<g id="edge1" class="edge">
<title>36&#45;&gt;37</title>
<path fill="none" stroke="#000000" d="M108,-313.6769C108,-295.4739 108,-273.436 108,-254.0837"/>
<polygon fill="#000000" stroke="#000000" points="111.5001,-253.9475 108,-243.9476 104.5001,-253.9476 111.5001,-253.9475"/>
</g>
<!-- 38 -->
<g id="node3" class="node">
<title>38</title>
<ellipse fill="none" stroke="#ff0000" cx="108" cy="-92.4767" rx="75.8212" ry="37.4533"/>
<text text-anchor="middle" x="108" y="-103.7767" font-family="Times,serif" font-size="14.00" fill="#000000">Get STOC</text>
<text text-anchor="middle" x="108" y="-88.7767" font-family="Times,serif" font-size="14.00" fill="#000000">staticKey: false</text>
<text text-anchor="middle" x="108" y="-73.7767" font-family="Times,serif" font-size="14.00" fill="#000000">localTable: false</text>
</g>
<!-- 37&#45;&gt;38 -->
<g id="edge2" class="edge">
<title>37&#45;&gt;38</title>
<path fill="none" stroke="#000000" d="M101.6085,-168.8016C101.2571,-159.6608 101.164,-149.7661 101.3293,-140.226"/>
<polygon fill="#000000" stroke="#000000" points="104.8324,-140.1584 101.6101,-130.0655 97.8351,-139.965 104.8324,-140.1584"/>
</g>
<!-- 37&#45;&gt;38 -->
<g id="edge3" class="edge">
<title>37&#45;&gt;38</title>
<path fill="none" stroke="#000000" stroke-dasharray="1,5" d="M114.3915,-168.8016C114.7429,-159.6608 114.836,-149.7661 114.6707,-140.226"/>
<polygon fill="#000000" stroke="#000000" points="118.1649,-139.965 114.3899,-130.0655 111.1676,-140.1584 118.1649,-139.965"/>
</g>
</g>
</svg>
